<svg width="661" height="151" viewBox="0 0 661 151" fill="none"
	xmlns="http://www.w3.org/2000/svg">
	<g clip-path="url(#clip0_214_118)">
		<path fill-rule="evenodd" clip-rule="evenodd" d="M41.485 151H82.435V101.86L121.513 0.771973H79.861L61.609 64.186L41.953 0.771973H0.0669861L41.485 102.328V151ZM221.901 0.771973H187.269C164.337 0.771973 152.871 10.4439 152.871 29.788V121.984C152.871 141.328 164.337 151 187.269 151H221.901C244.833 151 256.299 141.328 256.299 121.984V29.788C256.299 10.4439 244.833 0.771973 221.901 0.771973ZM215.349 116.602V35.17C215.349 31.738 213.399 30.022 209.499 30.022H199.671C195.771 30.022 193.821 31.738 193.821 35.17V116.602C193.821 120.034 195.771 121.75 199.671 121.75H209.499C213.399 121.75 215.349 120.034 215.349 116.602ZM359.963 32.83V57.166C359.963 60.598 358.013 62.314 354.113 62.314H337.265V27.682H354.113C358.013 27.682 359.963 29.398 359.963 32.83ZM359.963 118.942V94.372C359.963 90.94 358.013 89.224 354.113 89.224H337.265V124.09H354.113C358.013 124.09 359.963 122.374 359.963 118.942ZM365.813 0.771973H297.017V151H365.813C388.745 151 400.211 141.328 400.211 121.984V99.52C400.211 92.9679 399.431 87.781 397.871 83.959C396.311 80.1369 393.347 77.29 388.979 75.418C396.467 71.362 400.211 62.548 400.211 48.976V29.788C400.211 10.4439 388.745 0.771973 365.813 0.771973ZM481.411 121.75H532.657V151H440.461V0.771973H530.551V30.022H481.411V60.676H523.765V89.926H481.411V121.75ZM660.423 121.75H609.177V89.926H651.531V60.676H609.177V30.022H658.317V0.771973H568.227V151H660.423V121.75Z" fill="url(#paint0_radial_214_118)"/>
	</g>
	<defs>
		<radialGradient id="paint0_radial_214_118" cx="0" cy="0" r="1" gradientUnits="userSpaceOnUse" gradientTransform="translate(51 19.1151) rotate(13.1103) scale(647.373 165.881)">
			<stop stop-color="#8824B7"/>
			<stop offset="1" stop-color="#1F43B3"/>
		</radialGradient>
		<clipPath id="clip0_214_118">
			<rect width="661" height="151" fill="white"/>
		</clipPath>
	</defs>
</svg>
